#!OML:ASF I:\Actors\actors\Patient Classification 1\Patient 1\Session 1\Subject1.ASF
:FULLY-SPECIFIED
:DEGREES
463
root -0.297024 17.5679 7.6173 5.66215 -0.740903 -7.227
lowerback 4.50682 1.87607 4.68879
upperback -7.35116 3.11077 1.37495
thorax -10.1995 1.21533 -1.55908
lowerneck -13.3805 -4.17352 -0.0303811
upperneck 30.7006 -5.89609 -0.620962
head 12.3274 -2.7181 -1.07578
rclavicle 5.36719e-015 4.77083e-015
rhumerus -13.2013 42.808 -76.7221
rradius 71.3629
rwrist 7.19256
rhand 7.74568 -51.5574
rfingers 7.12502
rthumb 32.9852 -1518.56
lclavicle 5.36719e-015 4.77083e-015
lhumerus -31.6656 -33.023 104.635
lradius 86.3788
lwrist 7.74064
lhand -38.8944 -7.1491
lfingers 7.12502
lthumb -11.9018 22.4926
rfemur -0.0561949 23.6014 25.2683
rtibia 2.88876
rfoot -11.946 -22.2629
rtoes 0.0714373
lfemur 7.94746 -38.6791 -16.9114
ltibia -3.63964
lfoot -13.9711 46.8457
ltoes 6.22263
464
root -0.29643 17.5687 7.61247 5.72815 -1.1993 -7.14566
lowerback 4.60872 2.04852 4.62679
upperback -7.30927 3.3349 1.29709
thorax -10.1984 1.32562 -1.63951
lowerneck -13.2024 -4.17518 -0.0171442
upperneck 30.0472 -5.8668 -0.66619
head 12.0252 -2.72099 -1.07087
rclavicle 8.44835e-015 2.34566e-014
rhumerus -14.4735 45.1004 -76.924
rradius 72.7637
rwrist 5.03649
rhand -3.50593 -53.2622
rfingers 7.12502
rthumb 22.2283 -1522
lclavicle 8.44835e-015 2.34566e-014
lhumerus -31.7009 -33.44 104.71
lradius 86.5704
lwrist 7.53507
lhand -38.7868 -7.37184
lfingers 7.12502
lthumb -11.7981 22.2758
rfemur -0.173565 23.5907 25.0856
rtibia 2.8262
rfoot -11.6829 -21.8795
rtoes -0.417605
lfemur 7.95108 -38.4603 -17.0385
ltibia -3.58521
lfoot -14.3958 46.9928
ltoes 6.88354
465
root -0.296981 17.5747 7.6102 5.93466 -1.42578 -7.08686
lowerback 4.66731 2.14263 4.57995
upperback -7.32838 3.45956 1.26873
thorax -10.2481 1.3868 -1.66259
lowerneck -12.8171 -4.20101 0.162921
upperneck 29.0311 -5.77157 -1.15625
head 11.5207 -2.73886 -1.23366
rclavicle -1.60519e-014 1.35174e-014
rhumerus -15.5576 44.389 -76.8274
rradius 77.016
rwrist 9.70613
rhand -1.36023 -53.6496
rfingers 7.12502
rthumb 24.2869 -1522.13
lclavicle -1.60519e-014 1.35174e-014
lhumerus -31.7905 -33.5454 104.81
lradius 86.8838
lwrist 7.32046
lhand -38.6892 -7.37981
lfingers 7.12502
lthumb -11.704 22.2733
rfemur -0.341585 23.7679 24.9239
rtibia 2.65343
rfoot -11.6094 -21.8842
rtoes -0.561946
lfemur 7.72068 -38.4564 -16.9842
ltibia -3.55076
lfoot -14.7876 47.1319
ltoes 7.57004
466
root -0.296634 17.5836 7.61259 6.23835 -1.40726 -7.093
lowerback 4.64583 2.10899 4.65083
upperback -7.40835 3.42899 1.32733
thorax -10.3275 1.36615 -1.63611
lowerneck -12.4217 -4.0922 0.562304
upperneck 28.1558 -5.41603 -2.10006
head 11.0598 -2.6662 -1.56223
rclavicle -4.91992e-015 -4.77083e-014
rhumerus -17.3876 42.2534 -77.7177
rradius 83.3321
rwrist 9.6927
rhand -4.18564 -54.4552
rfingers 7.12502
rthumb 21.5757 -1523.27
lclavicle -4.91992e-015 -4.77083e-014
lhumerus -32.0782 -33.1661 104.971
lradius 87.3064
lwrist 7.13393
lhand -38.6611 -7.33873
lfingers 7.12502
lthumb -11.6769 22.3159
rfemur -0.557247 23.9389 24.8187
rtibia 2.43818
rfoot -11.596 -22.1256
rtoes -0.724332
lfemur 7.32581 -38.6225 -16.7323
ltibia -3.55557
lfoot -14.8773 47.2238
ltoes 7.89734
467
root -0.295565 17.5894 7.6198 6.57327 -1.10321 -7.20709
lowerback 4.43205 1.94708 4.90695
upperback -7.47916 3.23567 1.45264
thorax -10.2867 1.25889 -1.61188
lowerneck -12.154 -3.92176 0.899368
upperneck 27.5868 -4.96104 -3.09161
head 10.756 -2.55128 -1.89326
rclavicle -1.17531e-014 -5.96354e-016
rhumerus -19.4439 38.1623 -79.061
rradius 89.8387
rwrist 12.4703
rhand -5.63934 -53.7254
rfingers 7.12502
rthumb 20.179 -1522.7
lclavicle -1.17531e-014 -5.96354e-016
lhumerus -32.4189 -32.4998 105.155
lradius 87.6318
lwrist 7.12078
lhand -38.7352 -7.36196
lfingers 7.12502
lthumb -11.7483 22.2886
rfemur -0.734711 24.0987 24.8564
rtibia 2.16895
rfoot -11.5697 -22.612
rtoes -0.653376
lfemur 6.74405 -38.7541 -16.1923
ltibia -3.54498
lfoot -14.5786 47.0637
ltoes 7.50182
468
root -0.294102 17.5911 7.62898 6.87282 -0.662094 -7.25533
lowerback 4.22031 1.75083 5.12371
upperback -7.57804 2.98908 1.53586
thorax -10.2823 1.12538 -1.60561
lowerneck -11.9982 -3.73062 1.22658
upperneck 27.3088 -4.52216 -3.94905
head 10.5966 -2.42215 -2.18762
rclavicle -1.92324e-014 -1.88845e-014
rhumerus -19.7153 36.7379 -79.2328
rradius 95.7833
rwrist 12.9474
rhand -8.93031 -54.5516
rfingers 7.12502
rthumb 17.0135 -1523.83
lclavicle -1.92324e-014 -1.88845e-014
lhumerus -32.7745 -31.8412 105.349
lradius 87.7714
lwrist 7.14308
lhand -38.8398 -7.32783
lfingers 7.12502
lthumb -11.8491 22.3169
rfemur -0.820477 24.4028 24.8601
rtibia 1.85386
rfoot -11.7161 -23.326
rtoes 0.0507659
lfemur 6.09942 -38.8073 -15.6713
ltibia -3.49403
lfoot -14.2802 46.7062
ltoes 7.10134
469
root -0.29088 17.5907 7.64165 7.06858 -0.357254 -7.16397
lowerback 4.24141 1.5852 5.15104
upperback -7.7549 2.78305 1.57931
thorax -10.5092 1.0167 -1.55151
lowerneck -11.6897 -3.52834 1.48835
upperneck 27.0239 -4.1281 -4.54649
head 10.419 -2.28661 -2.37927
rclavicle -6.28657e-015 -4.17448e-015
rhumerus -20.546 35.2324 -79.9325
rradius 101.346
rwrist 13.7563
rhand -11.4885 -54.718
rfingers 7.12502
rthumb 14.5499 -1524.19
lclavicle -6.28657e-015 -4.17448e-015
lhumerus -33.2564 -31.186 105.62
lradius 87.7898
lwrist 7.07639
lhand -38.8367 -7.14064
lfingers 7.12502
lthumb -11.8462 22.5043
rfemur -0.800423 24.728 24.7317
rtibia 1.57429
rfoot -11.9701 -23.9361
rtoes 0.846432
lfemur 5.8067 -39.1092 -15.5971
ltibia -3.49021
lfoot -14.3339 46.6786
ltoes 7.24042
470
root -0.289559 17.5896 7.65107 7.08541 -0.243615 -7.06293
lowerback 4.46539 1.42115 5.10418
upperback -7.8873 2.58268 1.60785
thorax -10.8107 0.914429 -1.47769
lowerneck -11.259 -3.31448 1.69782
upperneck 26.6358 -3.77708 -4.89788
head 10.1909 -2.14508 -2.47375
rclavicle 1.01877e-014 -2.70347e-014
rhumerus -21.6102 35.1048 -81.1887
rradius 104.872
rwrist 16.5728
rhand -17.0234 -53.6128
rfingers 7.12502
rthumb 9.21281 -1523.39
lclavicle 1.01877e-014 -2.70347e-014
lhumerus -33.6587 -30.5967 105.768
lradius 87.7149
lwrist 7.05183
lhand -38.9709 -7.1487
lfingers 7.12502
lthumb -11.9756 22.4887
rfemur -0.674239 24.9161 24.6481
rtibia 1.42533
rfoot -12.0931 -24.251
rtoes 1.20095
lfemur 5.93978 -39.5377 -15.8327
ltibia -3.55457
lfoot -14.5153 46.9519
ltoes 7.44988
471
root -0.294037 17.5903 7.64515 6.98472 -0.212892 -7.12735
lowerback 4.76707 1.23965 5.1663
upperback -7.90513 2.36854 1.63361
thorax -11.0276 0.800206 -1.46477
lowerneck -10.9215 -3.09204 1.9416
upperneck 26.2819 -3.47425 -5.06254
head 9.99897 -1.99966 -2.51851
rclavicle -4.24902e-015 3.73715e-014
rhumerus -22.0596 35.4147 -82.2311
rradius 105.389
rwrist 21.0252
rhand -27.9529 -50.9618
rfingers 7.12502
rthumb -1.34042 -1520.94
lclavicle -4.24902e-015 3.73715e-014
lhumerus -33.7219 -30.2099 105.599
lradius 87.596
lwrist 7.09369
lhand -39.1754 -7.25324
lfingers 7.12502
lthumb -12.1728 22.3726
rfemur -0.624698 25.0154 24.7927
rtibia 1.53265
rfoot -12.1284 -24.3651
rtoes 1.23537
lfemur 6.02387 -39.5005 -15.7638
ltibia -3.58963
lfoot -14.3703 46.9024
ltoes 7.19333
472
root -0.297305 17.5946 7.62285 6.9624 -0.467621 -7.63203
lowerback 5.00173 1.1678 5.63435
upperback -7.87519 2.34591 1.74208
thorax -11.132 0.752523 -1.61121
lowerneck -10.6574 -2.89387 2.11976
upperneck 25.95 -3.2395 -5.04692
head 9.83456 -1.87126 -2.50026
rclavicle 2.37299e-014 4.17448e-015
rhumerus -22.2446 36.304 -83.0608
rradius 104.136
rwrist 25.5315
rhand -35.1522 -53.4711
rfingers 7.12502
rthumb -8.29164 -1523.29
lclavicle 2.37299e-014 4.17448e-015
lhumerus -33.5055 -30.0618 105.279
lradius 87.4406
lwrist 7.15028
lhand -39.2805 -7.30654
lfingers 7.12502
lthumb -12.2742 22.3133
rfemur -0.977638 25.1299 25.3025
rtibia 1.98965
rfoot -12.1028 -24.1526
rtoes 0.968521
lfemur 5.88444 -39.2198 -14.9922
ltibia -3.57998
lfoot -14.3263 46.9128
ltoes 7.04044
473
root -0.295258 17.5946 7.60664 6.9546 -0.976627 -8.11527
lowerback 4.97283 1.24371 6.08656
upperback -7.76029 2.49383 1.82638
thorax -10.966 0.796936 -1.79066
lowerneck -10.4334 -2.77439 2.21399
upperneck 25.5864 -3.11383 -4.9721
head 9.66643 -1.79497 -2.46004
rclavicle -7.35503e-015 -2.66371e-014
rhumerus -22.2276 37.4861 -83.4415
rradius 101.815
rwrist 31.5514
rhand -33.8877 -55.0838
rfingers 7.12502
rthumb -7.07118 -1524.95
lclavicle -7.35503e-015 -2.66371e-014
lhumerus -33.1622 -30.1623 105.003
lradius 87.2457
lwrist 7.15322
lhand -39.3717 -7.32538
lfingers 7.12502
lthumb -12.3621 22.2891
rfemur -1.37031 25.0493 25.7228
rtibia 2.47656
rfoot -11.9908 -23.5218
rtoes 0.397345
lfemur 6.01731 -39.2239 -14.5203
ltibia -3.60362
lfoot -14.6525 47.421
ltoes 7.30977
474
root -0.293134 17.5835 7.61719 6.72566 -1.32715 -7.88146
lowerback 4.72132 1.28419 5.7967
upperback -7.56431 2.48079 1.77187
thorax -10.5958 0.82569 -1.67817
lowerneck -10.2005 -2.68801 2.32771
upperneck 25.2823 -2.99826 -5.04963
head 9.51466 -1.73824 -2.47949
rclavicle 5.76476e-015 1.05356e-014
rhumerus -21.9938 39.0472 -83.5221
rradius 97.9515
rwrist 34.6576
rhand -29.1442 -51.6016
rfingers 7.12502
rthumb -2.491 -1521.57
lclavicle 5.76476e-015 1.05356e-014
lhumerus -32.9239 -30.2886 104.879
lradius 87.1176
lwrist 7.15207
lhand -39.3755 -7.30516
lfingers 7.12502
lthumb -12.3657 22.3091
rfemur -1.11607 24.6273 25.5364
rtibia 2.53896
rfoot -11.9277 -22.8374
rtoes 0.0121928
lfemur 6.75442 -39.3012 -15.384
ltibia -3.71392
lfoot -14.7746 47.8477
ltoes 7.42032
475
root -0.29499 17.5748 7.6241 6.41988 -1.72884 -7.58155
lowerback 4.69471 1.27927 5.31479
upperback -7.44555 2.41798 1.78132
thorax -10.4623 0.839223 -1.39061
lowerneck -9.92487 -2.52963 2.39734
upperneck 25.1123 -2.75963 -5.16401
head 9.40881 -1.63154 -2.49483
rclavicle 2.44505e-014 6.55989e-014
rhumerus -21.6759 41.5993 -83.9378
rradius 93.703
rwrist 30.0502
rhand -17.4653 -48.5438
rfingers 7.12502
rthumb 8.78639 -1518.34
lclavicle 2.44505e-014 6.55989e-014
lhumerus -32.8845 -30.2522 104.842
lradius 87.1493
lwrist 7.37123
lhand -39.2679 -7.30656
lfingers 7.12502
lthumb -12.262 22.314
rfemur -0.755555 24.3277 25.3259
rtibia 2.54514
rfoot -11.8478 -22.2506
rtoes -0.271796
lfemur 7.52192 -39.1014 -16.2807
ltibia -3.84373
lfoot -14.9239 48.0352
ltoes 7.74081
476
root -0.297807 17.5729 7.61981 6.25961 -2.37471 -7.51381
lowerback 4.748 1.33724 5.00009
upperback -7.40897 2.47258 1.84984
thorax -10.462 0.893921 -1.1508
lowerneck -9.75315 -2.327 2.40509
upperneck 25.1257 -2.48644 -5.10963
head 9.39396 -1.49639 -2.44584
rclavicle 2.73329e-015 8.54774e-015
rhumerus -20.9036 43.1926 -84.4609
rradius 90.2846
rwrist 19.9967
rhand -1.39418 -52.0529
rfingers 7.12502
rthumb 24.2543 -1520.54
lclavicle 2.73329e-015 8.54774e-015
lhumerus -32.9362 -30.1915 104.747
lradius 87.3178
lwrist 7.65206
lhand -39.0373 -7.20469
lfingers 7.12502
lthumb -12.0396 22.429
rfemur -0.718078 24.2542 25.251
rtibia 2.6622
rfoot -11.6409 -21.6015
rtoes -0.727751
lfemur 8.00541 -38.9266 -16.71
ltibia -3.86319
lfoot -15.4998 48.3897
ltoes 8.48386
477
root -0.298569 17.5718 7.62039 6.16044 -3.00389 -7.37128
lowerback 4.71433 1.4764 4.73612
upperback -7.37543 2.62436 1.7928
thorax -10.4007 0.987283 -1.08386
lowerneck -9.81926 -2.22847 2.51748
upperneck 25.3148 -2.37776 -5.06841
head 9.47704 -1.43124 -2.44611
rclavicle -3.3048e-015 1.74931e-014
rhumerus -19.8893 42.2931 -84.9201
rradius 87.3425
rwrist 7.68991
rhand 7.15675 -58.1213
rfingers 7.12502
rthumb 32.4249 -1525.24
lclavicle -3.3048e-015 1.74931e-014
lhumerus -33.0019 -30.3952 104.629
lradius 87.5134
lwrist 7.79092
lhand -38.9518 -7.09758
lfingers 7.12502
lthumb -11.9572 22.5409
rfemur -0.687552 24.1504 25.0466
rtibia 2.66611
rfoot -11.4303 -20.9308
rtoes -1.12808
lfemur 8.40537 -38.8716 -17.2244
ltibia -3.80579
lfoot -16.1394 48.8039
ltoes 9.13042
